. 
  
http://www.torrentday.com/        :     The Hottest Private Tracker On The Net!!!


               www . TorrentDay . Com 
(((((((((((((= Enjoy No RAR releases =))))))))))))))))))))


...................................NFO:....................................

.*******************************************************************************
                Battle.Of.The.Brave.2004.DVDRip.AC3.X264-BARC0DE
*******************************************************************************

-------------------------------------------------------------------------------
                              General Information
-------------------------------------------------------------------------------
Type.................: Movie
Name.................: Battle of the Brave - Nouvelle-France (original title)
Movie Information....: http://www.imdb.com/title/tt0386669/
Genre................: Drama | History | Romance | War

-------------------------------------------------------------------------------
                                    PLOT
-------------------------------------------------------------------------------
In the mid-18th Century, as England and France battle over control of Canada, an 
epic romance between a peasant woman and a trapper unfurls.

-------------------------------------------------------------------------------
                                    CAST
-------------------------------------------------------------------------------
Nomie Godin-Vigneau	... 	Marie-Loup Carignan
David La Haye	... 	Franois le Gardeur
Juliette Gosselin	... 	Young France Carignan
Sbastien Huberdeau	... 	Xavier Maillard
Grard Depardieu	... 	Father Thomas Blondeau
Bianca Gervais	... 	Acoona
Irne Jacob	... 	Anglique de Roquebrune
Pierre Lebeau	... 	Joseph Carignan
Vincent Perez	... 	Intendant Le Bigot
Isabel Richer	... 	France Carignan
Johanne-Marie Tremblay	... 	Madeleine Carignan (as Johanne Marie Tremblay)
Tim Roth	... 	William Pitt
Jason Isaacs	... 	Gnral James Wolfe
Colm Meaney	... 	Benjamin Franklin
Billy Merasty	... 	Owashak
-------------------------------------------------------------------------------
                                    MEDiA iNFO
-------------------------------------------------------------------------------

General
Complete name                    : Battle.Of.The.Brave.2004.DVDRip.AC3.X264-BARC0DE.mkv
Format                           : Matroska
File size                        : 1.45 GiB
Duration                         : 2h 17mn
Overall bit rate                 : 1 513 Kbps


Video
ID                               : 1
Format                           : AVC
Format/Info                      : Advanced Video Codec
Format profile                   : High@L3.0
Format settings, CABAC           : Yes
Format settings, ReFrames        : 3 frames
Muxing mode                      : Container profile=Unknown@3.0
Codec ID                         : V_MPEG4/ISO/AVC
Duration                         : 2h 17mn
Bit rate                         : 1 071 Kbps
Width                            : 720 pixels
Height                           : 400 pixels
Display aspect ratio             : 16:9
Frame rate                       : 25.000 fps
Color space                      : YUV
Chroma subsampling               : 4:2:0
Bit depth                        : 8 bits
Scan type                        : Progressive
Bits/(Pixel*Frame)               : 0.149
Stream size                      : 1 017 MiB (68%)
Writing library                  : x264 core 79


Audio
ID                               : 2
Format                           : AC-3
Format/Info                      : Audio Coding 3
Mode extension                   : CM (complete main)
Codec ID                         : A_AC3
Duration                         : 2h 17mn
Bit rate mode                    : Constant
Bit rate                         : 448 Kbps
Channel(s)                       : 6 channels
Channel positions                : Front: L C R, Side: L R, LFE
Sampling rate                    : 48.0 KHz
Stream size                      : 440 MiB (30%)
Language                         : English